<svg xmlns="http://www.w3.org/2000/svg" width="1600" height="1000" viewBox="0 0 1600 1000" role="img" aria-labelledby="title desc">
<title id="title">vaws-diagnostics · 诊断与反馈</title><desc id="desc">各组件记录操作事实；独立后台服务处理脱敏问题与可选 Grok 诊断。按 2026-09-14 锁定实现整理，具体职责、来源和支持边界见配套说明。</desc>
<defs><linearGradient id="bg" x1="0" y1="0" x2="1" y2="1"><stop stop-color="#f8fbff"/><stop offset="1" stop-color="#e6f1fa"/></linearGradient><linearGradient id="band" x1="0" y1="0" x2="1" y2="0"><stop stop-color="#e6effb"/><stop offset="1" stop-color="#f0f6fc"/></linearGradient><marker id="arrow" viewBox="0 0 10 10" refX="8" refY="5" markerWidth="6" markerHeight="6" orient="auto-start-reverse"><path d="M 0 0 L 10 5 L 0 10 z" fill="#7197c4"/></marker></defs>
<style>text{font-family:'Microsoft YaHei','Segoe UI','Noto Sans CJK SC',sans-serif} .label{fill:#5a7089} a{cursor:pointer}</style>
<rect x="0" y="0" width="1600" height="1000" rx="0" fill="url(#bg)"  />
<rect x="64" y="46" width="7" height="54" rx="3" fill="#a86b19"  />
<text x="88" y="44" font-size="13" fill="#5a7089" font-weight="600" text-anchor="start" letter-spacing="2">VAWS  /  ARCHITECTURE ATLAS</text>
<text x="88" y="86" font-size="35" fill="#142841" font-weight="700" text-anchor="start" letter-spacing="0">vaws-diagnostics · 诊断与反馈</text>
<text x="88" y="122" font-size="18" fill="#5a7089" font-weight="400" text-anchor="start" letter-spacing="0">各组件记录操作事实；独立后台服务处理脱敏问题与可选 Grok 诊断</text>
<text x="1536" y="85" font-size="42" fill="#b7cce5" font-weight="600" text-anchor="end" letter-spacing="0">07</text>
<rect x="204" y="172" width="1332" height="96" rx="17" fill="url(#band)"  />
<text x="66" y="227.0" font-size="21" fill="#142841" font-weight="650" text-anchor="start" letter-spacing="0">事件来源</text>
<rect x="220.0" y="186" width="248.8" height="68" rx="12" fill="white" stroke="#dbe6f2" />
<rect x="238.0" y="207" width="4" height="22" rx="2" fill="#a86b19"  />
<text x="252.0" y="217" font-size="20" fill="#142841" font-weight="650" text-anchor="start" letter-spacing="0" data-bounds="234.0,193,220.8,54">workspace</text>
<rect x="482.8" y="186" width="248.8" height="68" rx="12" fill="white" stroke="#dbe6f2" />
<rect x="500.8" y="207" width="4" height="22" rx="2" fill="#a86b19"  />
<text x="514.8" y="217" font-size="20" fill="#142841" font-weight="650" text-anchor="start" letter-spacing="0" data-bounds="496.8,193,220.8,54">remote-dev</text>
<rect x="745.6" y="186" width="248.8" height="68" rx="12" fill="white" stroke="#dbe6f2" />
<rect x="763.6" y="207" width="4" height="22" rx="2" fill="#a86b19"  />
<text x="777.6" y="217" font-size="20" fill="#142841" font-weight="650" text-anchor="start" letter-spacing="0" data-bounds="759.6,193,220.8,54">coordinator</text>
<rect x="1008.4000000000001" y="186" width="248.8" height="68" rx="12" fill="white" stroke="#dbe6f2" />
<rect x="1026.4" y="207" width="4" height="22" rx="2" fill="#a86b19"  />
<text x="1040.4" y="217" font-size="20" fill="#142841" font-weight="650" text-anchor="start" letter-spacing="0" data-bounds="1022.4000000000001,193,220.8,54">knowledge</text>
<rect x="1271.2" y="186" width="248.8" height="68" rx="12" fill="white" stroke="#dbe6f2" />
<rect x="1289.2" y="207" width="4" height="22" rx="2" fill="#a86b19"  />
<text x="1303.2" y="217" font-size="20" fill="#142841" font-weight="650" text-anchor="start" letter-spacing="0" data-bounds="1285.2,193,220.8,54">top</text>
<rect x="204" y="284" width="1332" height="146" rx="17" fill="url(#band)"  />
<text x="66" y="364.0" font-size="21" fill="#142841" font-weight="650" text-anchor="start" letter-spacing="0">共享诊断库</text>
<rect x="220.0" y="298" width="424.0" height="118" rx="12" fill="white" stroke="#dbe6f2" />
<rect x="238.0" y="319" width="4" height="22" rx="2" fill="#a86b19"  />
<text x="252.0" y="337" font-size="21" fill="#142841" font-weight="650" text-anchor="start" letter-spacing="0" data-bounds="234.0,305,396.0,104">操作与阶段记录</text>
<text x="242.0" y="365" font-size="18" fill="#5a7089" font-weight="400" text-anchor="start" letter-spacing="0" data-bounds="234.0,305,396.0,104">logger / operation / phase</text>
<text x="242.0" y="390" font-size="18" fill="#5a7089" font-weight="400" text-anchor="start" letter-spacing="0" data-bounds="234.0,305,396.0,104">错误因果与实际运行版本</text>
<rect x="658.0" y="298" width="424.0" height="118" rx="12" fill="white" stroke="#dbe6f2" />
<rect x="676.0" y="319" width="4" height="22" rx="2" fill="#a86b19"  />
<text x="690.0" y="337" font-size="21" fill="#142841" font-weight="650" text-anchor="start" letter-spacing="0" data-bounds="672.0,305,396.0,104">上下文与输出捕获</text>
<text x="680.0" y="365" font-size="18" fill="#5a7089" font-weight="400" text-anchor="start" letter-spacing="0" data-bounds="672.0,305,396.0,104">进程 / 线程 / RPC 关联</text>
<text x="680.0" y="390" font-size="18" fill="#5a7089" font-weight="400" text-anchor="start" letter-spacing="0" data-bounds="672.0,305,396.0,104">有界输出与原始失败保留</text>
<rect x="1096.0" y="298" width="424.0" height="118" rx="12" fill="white" stroke="#dbe6f2" />
<rect x="1114.0" y="319" width="4" height="22" rx="2" fill="#a86b19"  />
<text x="1128.0" y="337" font-size="21" fill="#142841" font-weight="650" text-anchor="start" letter-spacing="0" data-bounds="1110.0,305,396.0,104">本地诊断材料</text>
<text x="1118.0" y="365" font-size="18" fill="#5a7089" font-weight="400" text-anchor="start" letter-spacing="0" data-bounds="1110.0,305,396.0,104">各进程轮转 JSONL</text>
<text x="1118.0" y="390" font-size="18" fill="#5a7089" font-weight="400" text-anchor="start" letter-spacing="0" data-bounds="1110.0,305,396.0,104">按操作导出脱敏 bundle</text>
<rect x="204" y="446" width="1332" height="168" rx="17" fill="url(#band)"  />
<text x="66" y="537.0" font-size="21" fill="#142841" font-weight="650" text-anchor="start" letter-spacing="0">独立后台</text>
<rect x="220" y="461" width="424" height="136" rx="12" fill="white" stroke="#dbe6f2" />
<rect x="238" y="482" width="4" height="22" rx="2" fill="#a86b19"  />
<text x="252" y="500" font-size="22" fill="#142841" font-weight="650" text-anchor="start" letter-spacing="0" data-bounds="234,468,396,122">事件读取与归并</text>
<text x="242" y="528" font-size="18" fill="#5a7089" font-weight="400" text-anchor="start" letter-spacing="0" data-bounds="234,468,396,122">有界读取 / 失败指纹</text>
<text x="242" y="553" font-size="18" fill="#5a7089" font-weight="400" text-anchor="start" letter-spacing="0" data-bounds="234,468,396,122">重复事件聚合与保留</text>
<rect x="658" y="461" width="424" height="136" rx="12" fill="white" stroke="#dbe6f2" />
<rect x="676" y="482" width="4" height="22" rx="2" fill="#a86b19"  />
<text x="690" y="500" font-size="22" fill="#142841" font-weight="650" text-anchor="start" letter-spacing="0" data-bounds="672,468,396,122">脱敏与待发队列</text>
<text x="680" y="528" font-size="18" fill="#5a7089" font-weight="400" text-anchor="start" letter-spacing="0" data-bounds="672,468,396,122">字段白名单 / 泄露扫描</text>
<text x="680" y="553" font-size="18" fill="#5a7089" font-weight="400" text-anchor="start" letter-spacing="0" data-bounds="672,468,396,122">持久 outbox / 限流与重试</text>
<rect x="1096" y="461" width="424" height="136" rx="12" fill="white" stroke="#dbe6f2" />
<rect x="1114" y="482" width="4" height="22" rx="2" fill="#a86b19"  />
<text x="1128" y="500" font-size="22" fill="#142841" font-weight="650" text-anchor="start" letter-spacing="0" data-bounds="1110,468,396,122">协作选择检查</text>
<text x="1118" y="528" font-size="18" fill="#5a7089" font-weight="400" text-anchor="start" letter-spacing="0" data-bounds="1110,468,396,122">发送前读取当前选择</text>
<text x="1118" y="553" font-size="18" fill="#5a7089" font-weight="400" text-anchor="start" letter-spacing="0" data-bounds="1110,468,396,122">撤销、缺失或失效则停发</text>
<path d="M860,615 L860,655" fill="none" stroke="#7197c4" stroke-width="2" marker-end="url(#arrow)"/>
<rect x="768.0" y="622.0" width="184" height="25" rx="5" fill="#f4f8fd"  />
<text x="860.0" y="640.0" font-size="14" fill="#5a7089" font-weight="400" text-anchor="middle" letter-spacing="0">按配置与有效协作选择发布</text>
<rect x="204" y="664" width="1332" height="124" rx="17" fill="url(#band)"  />
<text x="66" y="733.0" font-size="21" fill="#142841" font-weight="650" text-anchor="start" letter-spacing="0">公共反馈</text>
<rect x="220.0" y="678" width="424.0" height="96" rx="12" fill="white" stroke="#dbe6f2" />
<rect x="238.0" y="699" width="4" height="22" rx="2" fill="#a86b19"  />
<text x="252.0" y="717" font-size="21" fill="#142841" font-weight="650" text-anchor="start" letter-spacing="0" data-bounds="234.0,685,396.0,82">GitHub Issue</text>
<text x="242.0" y="745" font-size="18" fill="#5a7089" font-weight="400" text-anchor="start" letter-spacing="0" data-bounds="234.0,685,396.0,82">脱敏证据 / 内容哈希 / 去重</text>
<rect x="658.0" y="678" width="424.0" height="96" rx="12" fill="white" stroke="#dbe6f2" />
<rect x="676.0" y="699" width="4" height="22" rx="2" fill="#a86b19"  />
<text x="690.0" y="717" font-size="21" fill="#142841" font-weight="650" text-anchor="start" letter-spacing="0" data-bounds="672.0,685,396.0,82">独立 Grok 诊断</text>
<text x="680.0" y="745" font-size="18" fill="#5a7089" font-weight="400" text-anchor="start" letter-spacing="0" data-bounds="672.0,685,396.0,82">事实 / 假设 / 缺失证据</text>
<rect x="1096.0" y="678" width="424.0" height="96" rx="12" fill="white" stroke="#dbe6f2" />
<rect x="1114.0" y="699" width="4" height="22" rx="2" fill="#a86b19"  />
<text x="1128.0" y="717" font-size="21" fill="#142841" font-weight="650" text-anchor="start" letter-spacing="0" data-bounds="1110.0,685,396.0,82">维护者后续处理</text>
<text x="1118.0" y="745" font-size="18" fill="#5a7089" font-weight="400" text-anchor="start" letter-spacing="0" data-bounds="1110.0,685,396.0,82">审查、修复和验证</text>
<rect x="64" y="838" width="1472" height="108" rx="16" fill="#ffffff" stroke="#dbe6f2" />
<text x="86" y="868" font-size="20" fill="#a86b19" font-weight="650" text-anchor="start" letter-spacing="0">零运行时依赖的共享库</text>
<text x="86" y="897" font-size="16" fill="#5a7089" font-weight="400" text-anchor="start" letter-spacing="0" data-bounds="83,847,328,95">所有组件使用统一格式</text>
<rect x="435" y="858" width="1" height="68" rx="0" fill="#e1eaf4"  />
<text x="454" y="868" font-size="20" fill="#a86b19" font-weight="650" text-anchor="start" letter-spacing="0">调用不用等待上报</text>
<text x="454" y="897" font-size="16" fill="#5a7089" font-weight="400" text-anchor="start" letter-spacing="0" data-bounds="451,847,328,95">记录与后台发布解耦</text>
<rect x="803" y="858" width="1" height="68" rx="0" fill="#e1eaf4"  />
<text x="822" y="868" font-size="20" fill="#a86b19" font-weight="650" text-anchor="start" letter-spacing="0">本地保留原始失败</text>
<text x="822" y="897" font-size="16" fill="#5a7089" font-weight="400" text-anchor="start" letter-spacing="0" data-bounds="819,847,328,95">日志故障不覆盖业务结果</text>
<rect x="1171" y="858" width="1" height="68" rx="0" fill="#e1eaf4"  />
<text x="1190" y="868" font-size="20" fill="#a86b19" font-weight="650" text-anchor="start" letter-spacing="0">公开内容受范围约束</text>
<text x="1190" y="897" font-size="16" fill="#5a7089" font-weight="400" text-anchor="start" letter-spacing="0" data-bounds="1187,847,328,95">明确协作选择与字段脱敏</text>
<text x="64" y="814" font-size="16" fill="#5a7089" font-weight="400" text-anchor="start" letter-spacing="0">箭头表示诊断材料的流向；Grok 回复不会自动修改代码、合并 PR、重启服务或改变任务状态。</text>
<text x="64" y="979" font-size="13" fill="#5a7089" font-weight="400" text-anchor="start" letter-spacing="0">VAWS · 当前实现视图 · 2026-09-14</text>
<text x="1536" y="979" font-size="13" fill="#5a7089" font-weight="400" text-anchor="end" letter-spacing="0">vaws-diagnostics  0.2.1  /  96fcdfaa</text>
</svg>